<svg xmlns="http://www.w3.org/2000/svg" viewBox="0 0 27.72 27.72"><defs><style>.a{fill:#fff;}.b,.c{fill:#e01e5a;}.c,.d{stroke:#e01e5a;stroke-miterlimit:10;}.c{stroke-width:0.1px;}.d{fill:none;stroke-width:1.5px;}</style></defs><title>quiz_2</title><circle class="a" cx="13.9" cy="13.86" r="12.72"/><path class="b" d="M1559.58,2522.84a13.86,13.86,0,1,1,13.86-13.86A13.87,13.87,0,0,1,1559.58,2522.84Zm0-26.2a12.34,12.34,0,1,0,12.34,12.34A12.36,12.36,0,0,0,1559.58,2496.64Z" transform="translate(-1545.72 -2495.13)"/><rect class="c" x="15.01" y="10.1" width="6.38" height="2.28"/><polygon class="c" points="9.25 10.61 7.87 9.49 6.61 11.05 9.5 13.39 13.5 8.73 11.98 7.43 9.25 10.61"/><rect class="c" x="14.88" y="16.84" width="6.38" height="2.28"/><circle class="d" cx="9.43" cy="17.98" r="2.31"/></svg>
