<svg xmlns="http://www.w3.org/2000/svg" id="Layer_1" data-name="Layer 1" viewBox="0 0 83 83"><defs><style>.cls-1{fill:#62bb46;}.cls-2{fill:#fafffb;}</style></defs><title>play</title><path id="Run" class="cls-1" d="M1042.52,266.39a41.5,41.5,0,1,0,29.34,12.15,41.24,41.24,0,0,0-29.34-12.15h0Z" transform="translate(-1001.02 -266.39)"/><path class="cls-2" d="M1057.85,306.85l-18.33-14.33a2.62,2.62,0,0,0-4.24,2v28.66a2.61,2.61,0,0,0,1.47,2.34,2.71,2.71,0,0,0,1.14.26,2.57,2.57,0,0,0,1.62-.56l18.33-14.33a2.59,2.59,0,0,0,0-4.09h0Z" transform="translate(-1001.02 -266.39)"/></svg>