<svg id="Layer_1" data-name="Layer 1" xmlns="http://www.w3.org/2000/svg" xmlns:xlink="http://www.w3.org/1999/xlink" viewBox="0 0 80 80"><defs><style>.cls-1{fill:none;}.cls-2{fill:#f8b34d;}.cls-3{clip-path:url(#clip-path);}.cls-4{fill:#18100a;}.cls-5{fill:#434345;}.cls-6{fill:#3e3d42;}.cls-7{fill:#fcfcfc;}.cls-8{fill:#4e4841;}.cls-9{fill:#e1dfe0;}</style><clipPath id="clip-path" transform="translate(-1891.69 -528.95)"><circle class="cls-1" cx="1931.69" cy="568.95" r="40"/></clipPath></defs><title>avatar</title><circle class="cls-2" cx="40" cy="40" r="40"/><g class="cls-3"><path class="cls-4" d="M1931.69,583.74c-13.23,0-24,11.28-24,25.2h47.92C1955.65,595,1944.92,583.74,1931.69,583.74Z" transform="translate(-1891.69 -528.95)"/><polygon class="cls-5" points="29.46 56.94 40 80 51.35 57.8 58.4 59.3 51.98 66.1 55.73 67.4 40 80 28.11 70.37 31.05 67.4 23.82 60.13 29.46 56.94"/><circle class="cls-4" cx="26.48" cy="24.95" r="4.58"/><circle class="cls-4" cx="53.45" cy="24.95" r="4.58"/><circle class="cls-6" cx="52.69" cy="25.71" r="3.04"/><circle class="cls-6" cx="27.05" cy="25.71" r="3.04"/><circle class="cls-7" cx="39.97" cy="41.8" r="19.6"/><path class="cls-4" d="M1930.43,569.86c1.39-3.31-1.83-7.44-6-6.68s-8.76,9.82-6.09,12.57S1928.53,574.41,1930.43,569.86Z" transform="translate(-1891.69 -528.95)"/><circle class="cls-8" cx="33.9" cy="40.08" r="1.73"/><circle class="cls-9" cx="33.9" cy="40.08" r="0.84"/><path class="cls-4" d="M1932.82,569.86c-1.39-3.31,1.83-7.44,6-6.68s8.76,9.82,6.09,12.57S1934.73,574.41,1932.82,569.86Z" transform="translate(-1891.69 -528.95)"/><circle class="cls-8" cx="45.98" cy="40.08" r="1.73"/><circle class="cls-9" cx="45.98" cy="40.08" r="0.84"/><path class="cls-4" d="M1932.9,577c1.47,0,1.93.95,1,2.11l-0.58.74a2,2,0,0,1-3.31,0l-0.58-.74c-0.91-1.16-.45-2.11,1-2.11h2.42Z" transform="translate(-1891.69 -528.95)"/><path class="cls-4" d="M1927.17,581.84a4.63,4.63,0,0,0,4.46-1.14c1.68,1.33,2.74,1.72,4.57.65a4.31,4.31,0,0,1-4.62,1.26C1930.13,583,1927.56,582.91,1927.17,581.84Z" transform="translate(-1891.69 -528.95)"/><circle class="cls-5" cx="40" cy="66.75" r="1.28"/><circle class="cls-5" cx="40" cy="71.19" r="1.28"/></g></svg>