
<svg id="Layer_1" data-name="Layer 1" xmlns="http://www.w3.org/2000/svg" viewBox="0 0 17.68 19.77"><defs><style>.cls-1{fill:#fff;}</style></defs><title>setting</title><path class="cls-1" d="M939.92,26.16a1.42,1.42,0,0,1-1.93-.56l-0.73-1.3a1.52,1.52,0,0,1,.5-2l0.46-.29a1.26,1.26,0,0,0,.52-1V19a1.26,1.26,0,0,0-.52-1l-0.46-.29a1.52,1.52,0,0,1-.5-2l0.73-1.3a1.42,1.42,0,0,1,1.93-.56l0.47,0.27a1.18,1.18,0,0,0,1.07,0l1.72-1a1.26,1.26,0,0,0,.55-0.95V11.57a1.47,1.47,0,0,1,1.44-1.45h1.46a1.46,1.46,0,0,1,1.44,1.44v0.56a1.26,1.26,0,0,0,.55.95l1.72,1a1.18,1.18,0,0,0,1.07,0l0.48-.27a1.42,1.42,0,0,1,1.93.56l0.73,1.3a1.52,1.52,0,0,1-.5,2l-0.46.29a1.26,1.26,0,0,0-.52,1V21a1.26,1.26,0,0,0,.52,1l0.46,0.29a1.52,1.52,0,0,1,.5,2l-0.73,1.3a1.42,1.42,0,0,1-1.93.56l-0.47-.27a1.18,1.18,0,0,0-1.07,0l-1.72,1a1.26,1.26,0,0,0-.55.95v0.56a1.47,1.47,0,0,1-1.44,1.45h-1.46a1.46,1.46,0,0,1-1.44-1.44V27.88a1.26,1.26,0,0,0-.55-0.95l-1.72-1a1.18,1.18,0,0,0-1.07,0Zm3.89-2.4a4.13,4.13,0,0,0,5.74-1.59A4.42,4.42,0,0,0,948,16.24a4.13,4.13,0,0,0-5.74,1.59A4.42,4.42,0,0,0,943.82,23.76Z" transform="translate(-937.08 -10.12)"/></svg>